<svg width="27" height="27" viewBox="0 0 27 27" fill="none" xmlns="http://www.w3.org/2000/svg">
<circle cx="13.7974" cy="13.4034" r="13.0666" fill="black"/>
<path d="M22.7665 9.68476C22.7665 9.52652 22.5291 8.2606 21.9753 7.70676C21.2632 6.91555 20.472 6.83643 20.0764 6.83643H19.9973C17.5445 6.67819 13.905 6.67819 13.8259 6.67819C13.8259 6.67819 10.1072 6.67819 7.6545 6.83643H7.57538C7.17978 6.83643 6.38858 6.91555 5.67649 7.70676C5.12265 8.33972 4.88529 9.60564 4.88529 9.76388C4.88529 9.843 4.72705 11.2672 4.72705 12.7705V14.1155C4.72705 15.6188 4.88529 17.043 4.88529 17.1221C4.88529 17.2803 5.12265 18.5462 5.67649 19.1001C6.30946 19.8122 7.10066 19.8913 7.57538 19.9704C7.6545 19.9704 7.73362 19.9704 7.81274 19.9704C9.23691 20.1286 13.5885 20.1286 13.7468 20.1286C13.7468 20.1286 17.4654 20.1286 19.9181 19.9704H19.9973C20.3929 19.8913 21.1841 19.8122 21.8962 19.1001C22.45 18.4671 22.6874 17.2012 22.6874 17.043C22.6874 16.9638 22.8456 15.5397 22.8456 14.0364V12.6913C22.9247 11.2672 22.7665 9.76388 22.7665 9.68476ZM16.9116 13.5617L12.1644 16.0935C12.0852 16.0935 12.0852 16.1726 12.0061 16.1726C11.927 16.1726 11.8479 16.1726 11.8479 16.0935C11.7688 16.0144 11.6896 15.9353 11.6896 15.777V10.6342C11.6896 10.476 11.7688 10.3968 11.8479 10.3177C11.927 10.2386 12.0852 10.2386 12.2435 10.3177L16.9907 12.8496C17.1489 12.9287 17.2281 13.0078 17.2281 13.1661C17.2281 13.3243 17.0698 13.4825 16.9116 13.5617Z" fill="white"/>
</svg>
