<svg width="27" height="27" viewBox="0 0 27 27" fill="none" xmlns="http://www.w3.org/2000/svg">
<circle cx="13.2773" cy="13.7376" r="13.0666" fill="black"/>
<path fill-rule="evenodd" clip-rule="evenodd" d="M21.8599 10.1394C22.0006 9.69363 21.8599 9.36958 21.2375 9.36958H19.168C18.6459 9.36958 18.4049 9.65332 18.2642 9.95682C18.2642 9.95682 17.1996 12.5492 15.7129 14.2299C15.2308 14.716 15.0099 14.878 14.7487 14.878C14.608 14.878 14.427 14.716 14.427 14.2706V10.1184C14.427 9.59207 14.2665 9.34903 13.8243 9.34903H10.5696C10.248 9.34903 10.0472 9.59207 10.0472 9.8351C10.0472 10.3413 10.7905 10.463 10.8708 11.8806V14.9606C10.8708 15.6288 10.7522 15.7509 10.489 15.7509C9.78599 15.7509 8.07842 13.1384 7.05411 10.1615C6.85494 9.57191 6.65261 9.34903 6.13018 9.34903H4.04087C3.43822 9.34903 3.33784 9.63237 3.33784 9.93627C3.33784 10.4832 4.04087 13.2372 6.6123 16.8823C8.31987 19.372 10.7506 20.71 12.9403 20.71C14.2665 20.71 14.427 20.4062 14.427 19.8999V18.0165C14.427 17.4091 14.5475 17.3079 14.9696 17.3079C15.2707 17.3079 15.8133 17.4696 17.0387 18.6646C18.4448 20.0821 18.6858 20.7302 19.4695 20.7302H21.5386C22.1413 20.7302 22.4227 20.4263 22.2618 19.8391C22.0812 19.2518 21.398 18.4014 20.5139 17.389C20.0318 16.8223 19.3086 16.1943 19.0877 15.8904C18.7866 15.4854 18.8668 15.3234 19.0877 14.959C19.0676 14.959 21.5991 11.3542 21.8599 10.1378" fill="white"/>
</svg>
