<svg width="27" height="27" viewBox="0 0 27 27" fill="none" xmlns="http://www.w3.org/2000/svg">
<circle cx="13.2773" cy="13.4034" r="13.0666" fill="black"/>
<path fill-rule="evenodd" clip-rule="evenodd" d="M19.6755 6.99843C18.8407 6.16327 17.849 5.50146 16.7575 5.05111C15.6659 4.60076 14.496 4.37076 13.3152 4.37435C8.35972 4.37435 4.32565 8.38826 4.32364 13.3228C4.32144 14.8941 4.73563 16.4379 5.52402 17.7971L4.24826 22.4325L9.01473 21.1882C10.3341 21.903 11.8111 22.277 13.3116 22.2765H13.3152C18.2703 22.2765 22.304 18.2622 22.3064 13.3281C22.3094 12.1513 22.0784 10.9857 21.6267 9.899C21.175 8.81234 20.5118 7.82637 19.6755 6.99843ZM13.3152 20.7662H13.312C11.9743 20.7666 10.661 20.4086 9.5085 19.7294L9.23562 19.5682L6.40718 20.3067L7.16215 17.5621L6.98439 17.2799C6.23643 16.0957 5.84014 14.7234 5.84165 13.3228C5.84165 9.22224 9.19571 5.88592 13.3181 5.88592C15.2956 5.88239 17.1935 6.66449 18.5945 8.0602C19.9954 9.45592 20.7846 11.3509 20.7884 13.3285C20.7868 17.4294 17.4343 20.7662 13.3152 20.7662ZM17.4142 15.1959C17.1897 15.0839 16.084 14.543 15.8792 14.4684C15.6745 14.3938 15.5233 14.3563 15.3738 14.5804C15.2242 14.8046 14.7933 15.306 14.6623 15.4571C14.5313 15.6083 14.4003 15.6248 14.1758 15.5128C13.9513 15.4007 13.227 15.1649 12.3688 14.4031C11.7009 13.8101 11.2502 13.0781 11.1192 12.8544C10.9882 12.6307 11.1051 12.5094 11.2176 12.3981C11.3188 12.2978 11.4421 12.1369 11.5546 12.0063C11.667 11.8757 11.7045 11.7822 11.7791 11.6331C11.8536 11.4839 11.8166 11.3533 11.7605 11.2417C11.7045 11.13 11.2551 10.0292 11.068 9.58139C10.8854 9.14526 10.7004 9.20451 10.5626 9.19766C10.4316 9.19121 10.2804 9.1896 10.1317 9.1896C10.018 9.19256 9.90609 9.21892 9.80303 9.26705C9.69997 9.31519 9.60795 9.38405 9.53269 9.46934C9.32671 9.69345 8.74627 10.2352 8.74627 11.3348C8.74627 12.4344 9.55244 13.4986 9.66369 13.6477C9.77494 13.7968 11.2478 16.0553 13.5015 17.0239C13.9199 17.2031 14.3475 17.3603 14.7825 17.4947C15.3206 17.6648 15.8103 17.6411 16.1973 17.5834C16.629 17.5193 17.5275 17.0425 17.7141 16.5201C17.9007 15.9977 17.9011 15.5503 17.8451 15.4571C17.7891 15.364 17.6391 15.3076 17.4142 15.1959Z" fill="white"/>
</svg>
